<?xml version="1.0" encoding="UTF-8"?>
<svg fill="#058dd687" width="1200pt" height="1200pt" version="1.1" viewBox="0 0 1200 1200" xmlns="http://www.w3.org/2000/svg">
 <path d="m38.664 997.5h103.59c3.2461 5.7266 9.2969 9.2969 15.879 9.375h67.82c14.176-0.027344 28.016-4.3398 39.699-12.371 11.684-8.0273 20.668-19.402 25.773-32.629h104.72l307.07 115.26c24.402 9.2148 50.578 12.781 76.555 10.434 25.98-2.3477 51.09-10.551 73.445-23.992l322.71-204.38c7.9141-5.0156 13.242-13.242 14.582-22.516 1.3398-9.2773-1.4375-18.672-7.6094-25.727-18.707-21.566-43.496-36.969-71.117-44.184-27.621-7.2148-56.781-5.9023-83.645 3.7578l-12.957 4.5938c-17.441-56.898-51.285-107.38-97.289-145.14-46.004-37.754-102.12-61.098-161.33-67.109v-115.97c4.4609 0.375 9.1328 0.63672 14.211 0.63672 27.203-0.27344 54.004-6.5859 78.465-18.484 24.461-11.898 45.977-29.082 62.988-50.309 100.37-115.46 28.801-281.46 25.707-288.47h-0.003906c-1.5703-3.4844-4.1602-6.4102-7.4258-8.3945s-7.0547-2.9336-10.871-2.7227c-65.258 5.5703-127.63 29.383-180 68.719-49.203-41.871-109.02-69.336-172.84-79.371-3.7969-0.50391-7.6602 0.16797-11.066 1.9219-3.4062 1.7578-6.1914 4.5156-7.9844 7.9023-3.582 6.7695-86.645 167.32 5.3633 289.55v0.003906c16.441 24.148 38.477 43.965 64.23 57.754 25.75 13.789 54.457 21.148 83.672 21.445 6.0625-0.007812 12.121-0.33203 18.148-0.97656v115.18c-44.594 0.93359-88.445 11.625-128.46 31.32-40.02 19.695-75.242 47.914-103.19 82.68-19.809-2.9648-39.914-3.3945-59.832-1.2773l-138.58 14.793v0.003906c-5.7188-11.875-14.668-21.902-25.82-28.93-11.148-7.0312-24.055-10.781-37.234-10.82h-67.895c-6.582 0.074219-12.633 3.6445-15.879 9.375h-103.59c-4.9727 0-9.7422 1.9727-13.262 5.4883-3.5156 3.5195-5.4883 8.2891-5.4883 13.262v301.55c0 4.9727 1.9727 9.7422 5.4883 13.258 3.5195 3.5156 8.2891 5.4922 13.262 5.4922zm845.27-643.41c-26.332 33.051-65.492 53.324-107.68 55.742 17.535-24.086 28.836-52.141 32.891-81.656 4.0586-29.516 0.74609-59.578-9.6406-87.504-7.5117-23.504-19.145-45.484-34.352-64.914 42.141-30.984 91.43-50.812 143.29-57.637 13.426 38.305 45.711 155.2-24.508 235.97zm-300.96-8.8125c-64.367-85.48-23.961-199.82-7.875-237.17 39.73 8.5508 156.32 41.906 188.66 143.91 18 47.156 9.9961 100.3-21.094 140.06l-94.199-182.59-33.32 17.176 94.145 182.53v-0.003906c-50.367 2.168-98.23-22.051-126.32-63.918zm141.8 253.29h0.003906c57.207-0.17578 112.94 18.141 158.89 52.215 45.953 34.074 79.664 82.086 96.109 136.88l-185.23 65.738c-6.4492-12.699-16.32-23.344-28.5-30.73l-189.32-115.26c-15.23-9.1953-31.445-16.656-48.336-22.238 24.992-27.199 55.34-48.934 89.137-63.84 33.797-14.902 70.312-22.652 107.25-22.766zm-293.19 112.73c43.82-4.5391 87.926 5.332 125.62 28.125l189.26 115.26 0.003906-0.003906c11.258 6.957 18.27 19.098 18.664 32.324 0.39453 13.227-5.8828 25.77-16.703 33.383-10.824 7.6133-24.746 9.2812-37.062 4.4375l-182.87-73.125-13.914 34.82 182.87 73.125c23.355 9.3398 49.805 6.6641 70.812-7.168 21.012-13.828 33.926-37.062 34.582-62.207l237.77-84.375c18.77-6.75 39.082-7.9688 58.523-3.5117 19.438 4.457 37.191 14.402 51.145 28.656l-316.76 200.62c-35.41 21.156-78.543 24.988-117.13 10.406l-310.25-116.55c-2.1055-0.78516-4.3359-1.1875-6.582-1.1836h-103.31v-198.58zm-254.7-24.73h49.07c8.7031 0.023438 17.039 3.4961 23.188 9.6562 6.1445 6.1602 9.6016 14.508 9.6055 23.211v217.12c-0.019531 8.6914-3.4805 17.023-9.625 23.172s-14.477 9.6172-23.168 9.6406h-49.07zm-119.48 9.375h81.977v264.05h-81.973z"/>
</svg>
