<?xml version="1.0" encoding="UTF-8"?>
<svg fill="#058dd687" width="1200pt" height="1200pt" version="1.1" viewBox="0 0 1200 1200" xmlns="http://www.w3.org/2000/svg">
 <path d="m883.71 325.6c-22.113-22.57-51.008-36.359-80.215-35.941-30.148 0.43359-60.09 16.84-80.242 51.949-37.367 65.105-64.75 83.344-79.582 86.504-14.832 3.1602-19.758-5.2383-19.758-5.2383-6.8984-8.9727-20.402 1.2461-13.641 10.324 0 0 13.961 16.547 36.965 11.645 23.004-4.9023 52.406-27.742 90.848-94.719 17.75-30.926 41.305-43.008 65.656-43.359 24.352-0.35156 50.047 11.863 69.602 32.738 38.664 41.273 53.852 114.46-11.766 187.68l-6.1133-6.0977-24.645 24.699 24.699 24.645 24.645-24.699-6.4648-6.4492c71.016-78.754 56.477-164.12 12.129-211.47-0.69922-0.74609-1.4062-1.4844-2.1172-2.2109zm-18.473 282.64-35.566-32.645-35.566-32.641-20.969 94.242 46.051-14.48zm-262.74-226.52-65.422-37.676-37.672 65.422 65.418 37.676zm-115.21-44.398c-8.3203-8.4609-21.93-8.5742-30.391-0.25391-0.63281 0.63281-1.2266 1.3047-1.7734 2.0156-41.293-5.8359-86.875 10.387-121.7 39.266-41.027 34.02-67.668 87.227-51.805 144.52 8.0586 29.113 26.793 45.961 49.281 54.801 22.488 8.8398 48.586 10.867 74.887 13.656 26.301 2.7891 52.75 6.2461 75.656 16.328s42.48 26.336 56.484 56.598c4.6602 10.695 20.66 3.2891 15.52-7.1875-15.629-33.773-39.137-53.633-65.117-65.066-25.977-11.43-54.215-14.871-80.75-17.684s-51.426-5.0977-70.43-12.566c-19-7.4688-32.266-18.93-39.051-43.445-13.832-49.961 9.0742-95.973 46.238-126.79 30.973-25.68 71.461-39.652 106.43-35.645 0.71484 4.375 2.7656 8.4219 5.8711 11.586 8.3242 8.4609 21.93 8.5742 30.391 0.25391 8.4609-8.3203 8.5742-21.93 0.25391-30.391zm275.46 316.52c-3.7891-3.8477-10.152-3.2656-13.18 1.207-16.07 23.066-16.812 46.148-9.3164 65.969s22.039 36.906 35.738 53.113c13.699 16.203 26.527 31.613 31.754 45.562 5.1914 13.855 4.6602 25.59-9.5781 41.418-38.219 34.324-78.867 38.387-111.97 25.754-33.211-12.676-58.539-42.77-63.828-78.035-0.066407-0.50781-0.17969-1.0078-0.33594-1.4961l15.773-2.1016-29.781-38.68-9.3047 22.562-9.3047 22.566 15.926-2.1211c-0.027344 0.60547 0.011718 1.2109 0.11328 1.8086 6.2578 41.723 35.742 76.633 74.645 91.48 38.898 14.848 87.504 8.9805 129.92-29.352 0.20703-0.1875 0.40625-0.38672 0.59766-0.59766 17.734-19.535 20.023-40.859 13.148-59.211s-21.051-34.449-34.703-50.598c-13.652-16.148-26.809-32.262-32.809-48.121s-6.0352-30.926 7.3516-50.133c2.4297-3.3828 2.0664-8.0234-0.85547-10.988zm-153.78 34.516c-15.965-16.234-42.066-16.453-58.301-0.48438-16.234 15.965-16.453 42.066-0.48437 58.301 15.965 16.234 42.066 16.449 58.301 0.48438s16.453-42.066 0.48828-58.301z"/>
</svg>
