<?xml version="1.0" encoding="UTF-8"?>
<svg fill="#058dd687" width="1200pt" height="1200pt" version="1.1" viewBox="0 0 1200 1200" xmlns="http://www.w3.org/2000/svg">
 <g>
  <path d="m413.41 299.98c-3.0273 30.57 1.4961 61.418 13.172 89.832 11.676 28.414 30.145 53.531 53.793 73.141 10.848 9.4922 16.895 23.332 16.496 37.738v61.863c0.035156 24.848 9.9258 48.668 27.5 66.23 17.578 17.566 41.402 27.445 66.25 27.465h18.75c24.855-0.027344 48.684-9.9141 66.258-27.492 17.578-17.574 27.465-41.402 27.492-66.258v-60.664c-0.42578-14.977 5.8008-29.375 17.012-39.32 30.949-25.852 52.738-60.992 62.129-100.21 9.3906-39.219 5.8828-80.418-10-117.48-15.883-37.066-43.297-68.02-78.168-88.27-34.875-20.246-75.348-28.707-115.41-24.129-41.859 6.5469-80.512 26.359-110.27 56.523s-49.035 69.082-55.008 111.03zm252.21 243.77v18.75h-131.25v-18.75zm-56.25 75h-18.75c-15.914-0.042969-31.055-6.8633-41.633-18.75h102c-10.574 11.887-25.711 18.707-41.621 18.75zm-26.551-449.04c5.7695-0.64453 11.57-0.96875 17.379-0.96875 36.863-0.11328 72.449 13.516 99.809 38.223 32.48 29.016 50.719 70.734 49.965 114.28-0.75 43.547-20.422 84.605-53.883 112.48-19.754 17.059-30.918 42.008-30.469 68.105v4.4141h-46.875v-71.246c0-5.6953-2.5859-11.082-7.0312-14.641l-73.168-58.547c-2.6484-2.1055-4.1875-5.3047-4.1758-8.6875v-6.3555c0.003906-6.1562 4.9961-11.145 11.152-11.148h4.7266-0.003906c3.7305-0.007812 7.2109 1.8594 9.2656 4.9688 9.0195 13.539 24.215 21.664 40.484 21.652h0.019531c16.258 0.015625 31.445-8.1133 40.445-21.652 2.0664-3.1094 5.5508-4.9766 9.2852-4.9727h4.7266c6.1562 0.003906 11.145 4.9961 11.148 11.152v8.3398c-0.007812 2.9531-1.1797 5.7852-3.2578 7.8828l-41.875 41.867 26.516 26.516 41.875-41.867h-0.003906c9.0898-9.1484 14.207-21.504 14.246-34.398v-8.3398c-0.015625-12.898-5.1445-25.262-14.266-34.383s-21.488-14.254-34.387-14.266h-4.7266 0.003906c-16.273-0.019531-31.473 8.1133-40.484 21.66-2.0664 3.0977-5.5391 4.957-9.2617 4.9609s-7.1992-1.8516-9.2695-4.9414c-9.0078-13.559-24.207-21.699-40.484-21.68h-4.7266c-12.898 0.015625-25.262 5.1445-34.383 14.266s-14.25 21.484-14.266 34.383v6.3555c-0.042969 14.785 6.6836 28.781 18.254 37.984l66.121 52.898v62.238h-46.875v-5.5586c0.42188-25.574-10.598-50-30.047-66.613-38.438-31.867-58.523-80.758-53.598-130.44 5.1016-33.395 20.621-64.32 44.344-88.371 23.719-24.051 54.43-39.992 87.75-45.555z"/>
  <path d="m581.25 18.75h37.5v75h-37.5z"/>
  <path d="m825 300h75v37.5h-75z"/>
  <path d="m300 300h75v37.5h-75z"/>
  <path d="m374.62 119.88 26.516-26.516 53.027 53.027-26.516 26.516z"/>
  <path d="m745.84 146.39 53.027-53.027 26.516 26.516-53.027 53.027z"/>
  <path d="m286.34 858.48 163.66 180.02v142.75h37.5v-142.75c0-9.3281-3.4727-18.324-9.7422-25.23l-163.68-180.02c-2.7148-3.0195-4.3828-6.832-4.7578-10.875-0.37891-4.043 0.55859-8.0977 2.668-11.566l117.23-190.49c2.4414-4.0078 6.3047-6.9453 10.82-8.2344 4.5117-1.2852 9.3438-0.82422 13.531 1.293l8.0742 4.0391h0.003907c4.668 2.3359 8.1523 6.5117 9.6133 11.527 1.457 5.0117 0.76172 10.406-1.9258 14.887l-84.156 140.25h0.003906c-4.2969 7.168-6.0742 15.57-5.0469 23.863 1.0234 8.2969 4.793 16.012 10.703 21.922l91.168 91.16v-0.003907c10.523 10.586 24.844 16.52 39.77 16.48h156.45c14.926 0.039062 29.246-5.8945 39.77-16.48l91.188-91.168c5.9062-5.9141 9.6719-13.637 10.688-21.934 1.0195-8.3008-0.76563-16.699-5.0664-23.871l-84.137-140.22v0.003906c-2.6875-4.4805-3.3828-9.875-1.9219-14.887 1.457-5.0156 4.9414-9.1914 9.6133-11.527l8.0742-4.0391c4.1875-2.1211 9.0195-2.5859 13.535-1.3008 4.5156 1.2891 8.3789 4.2305 10.816 8.2422l117.22 190.49h0.003906c2.1094 3.4688 3.0469 7.5273 2.668 11.57-0.37891 4.043-2.0547 7.8555-4.7734 10.871l-163.66 180.04v-0.003906c-6.2734 6.8984-9.7461 15.891-9.7422 25.215v142.75h37.5v-142.75l163.64-180.02c8.1719-9.0391 13.199-20.48 14.336-32.613 1.1367-12.133-1.6836-24.305-8.0352-34.707l-117.23-190.49c-7.3281-12.023-18.914-20.844-32.453-24.707-13.539-3.8594-28.039-2.4805-40.605 3.8711l-8.0742 4.0391v-0.003906c-14.02 7.0039-24.477 19.543-28.859 34.586-4.3789 15.047-2.2812 31.238 5.7891 44.672l84.137 140.22-91.168 91.16c-3.1875 3.0586-7.3516 4.8984-11.762 5.1914 16.609-20.242 24.898-46.039 23.184-72.168-1.7109-26.125-13.297-50.621-32.41-68.52-19.109-17.895-44.309-27.855-70.492-27.855s-51.383 9.9609-70.492 27.855c-19.113 17.898-30.699 42.395-32.41 68.52-1.7148 26.129 6.5742 51.926 23.184 72.168-4.4102-0.29297-8.5742-2.1328-11.762-5.1914l-91.168-91.16 84.137-140.22c8.0703-13.434 10.168-29.625 5.7852-44.672-4.3789-15.043-14.836-27.582-28.855-34.586l-8.0742-4.0391v0.003906c-12.566-6.3555-27.066-7.7383-40.605-3.8789-13.543 3.8633-25.129 12.688-32.453 24.715l-117.23 190.49c-6.3516 10.398-9.1719 22.574-8.0391 34.703 1.1328 12.133 6.1562 23.574 14.32 32.617zm313.66-89.73c17.406 0 34.098 6.9141 46.402 19.223 12.309 12.305 19.223 28.996 19.223 46.402s-6.9141 34.098-19.223 46.402c-12.305 12.309-28.996 19.223-46.402 19.223s-34.098-6.9141-46.402-19.223c-12.309-12.305-19.223-28.996-19.223-46.402 0.019531-17.398 6.9414-34.078 19.246-46.379 12.301-12.305 28.98-19.227 46.379-19.246z"/>
  <path d="m581.25 675h37.5v37.5h-37.5z"/>
 </g>
</svg>
