<?xml version="1.0" encoding="UTF-8"?>
<svg fill="#058dd687" width="1200pt" height="1200pt" version="1.1" viewBox="0 0 1200 1200" xmlns="http://www.w3.org/2000/svg">
 <g>
  <path d="m1125 1106.2h-37.5l37.5-91.875c3.75-9.375 0-20.625-11.25-24.375-9.375-3.75-20.625 0-24.375 11.25l-33.75 82.5-433.12-723.75 46.875-78.75c5.625-9.375 1.875-20.625-5.625-26.25-9.375-5.625-20.625-1.875-26.25 5.625l-37.5 61.875-37.5-60c-5.625-9.375-16.875-11.25-26.25-5.625s-11.25 16.875-5.625 26.25l46.875 78.75-97.5 163.12-88.125-161.25h84.375c7.5 0 13.125-3.75 16.875-11.25 3.75-5.625 1.875-13.125-1.875-18.75l-200.62-270c-7.5-9.375-22.5-9.375-30 0l-200.62 270c-3.75 5.625-5.625 13.125-1.875 18.75s9.375 11.25 16.875 11.25h84.375l-101.25 183.75c-3.75 5.625-3.75 13.125 0 18.75s9.375 9.375 16.875 9.375h88.125l-105 178.12c-3.75 5.625-3.75 13.125 0 18.75s9.375 9.375 16.875 9.375h181.88v114.38l-112.5 187.5-33.75-82.5c-3.75-9.375-15-15-24.375-11.25s-15 15-11.25 24.375l37.5 91.875h-37.5c-11.25 0-18.75 7.5-18.75 18.75s7.5 18.75 18.75 18.75h1050c11.25 0 18.75-7.5 18.75-18.75s-7.5-18.75-18.75-18.75zm-99.375 0h-191.25l56.25-106.88c3.75-5.625 1.875-15-1.875-20.625-105-133.12-258.75-352.5-270-427.5v-7.5-3.75-1.875c-1.875-3.75-5.625-7.5-9.375-9.375-1.875 0-3.75 0-3.75-1.875h-1.875-3.75-3.75c-1.875 0-1.875 1.875-3.75 1.875s-1.875 1.875-3.75 1.875c0 0-1.875 1.875-1.875 3.75l-1.875 1.875c0 1.875 0 1.875-1.875 3.75v3.75 7.5c-9.375 75-165 294.38-270 429.38-3.75 5.625-5.625 13.125-1.875 20.625l56.25 106.88h-193.12l425.62-712.5zm-620.62-5.625-56.25-106.88c35.625-45 151.88-196.88 219.38-318.75-22.5 159.38-73.125 369.38-163.12 425.62zm195-390c20.625 135 61.875 313.12 144.38 395.62h-288.75c82.5-82.5 123.75-260.62 144.38-395.62zm31.875-35.625c67.5 121.88 183.75 273.75 219.38 318.75l-56.25 106.88c-90-56.25-140.62-266.25-163.12-425.62zm-213.75-48.75-30-52.5h61.875zm-311.25 118.12 105-178.12c3.75-5.625 3.75-13.125 0-18.75s-9.375-9.375-16.875-9.375h-88.125l101.25-183.75c3.75-5.625 3.75-13.125 0-18.75s-9.375-9.375-16.875-9.375h-78.75l163.12-219.38 163.12 219.38h-78.75c-7.5 0-13.125 3.75-16.875 9.375s-3.75 13.125 0 18.75l99.375 183.75h-86.25c-7.5 0-13.125 3.75-16.875 9.375s-3.75 13.125 0 18.75l56.25 97.5-48.75 80.625h-54.375v-84.375l37.5-31.875c7.5-7.5 9.375-18.75 1.875-26.25s-18.75-9.375-26.25-1.875l-13.125 11.25v-176.25l37.5-31.875c7.5-7.5 9.375-18.75 1.875-26.25s-18.75-9.375-26.25-1.875l-13.125 11.25v-101.25c0-11.25-7.5-18.75-18.75-18.75s-18.75 7.5-18.75 18.75v157.5l-11.25-13.125c-7.5-7.5-20.625-5.625-26.25 1.875-7.5 7.5-5.625 20.625 1.875 26.25l37.5 31.875v157.5l-13.125-11.25c-7.5-7.5-20.625-5.625-26.25 1.875-7.5 7.5-5.625 20.625 1.875 26.25l37.5 31.875v46.875h-150zm187.5 37.5h31.875l-31.875 52.5z"/>
  <path d="m935.62 472.5c114.38 0 208.12-93.75 208.12-208.12s-93.75-208.12-208.12-208.12c-24.375 0-46.875 3.75-69.375 11.25-9.375 3.75-13.125 11.25-11.25 20.625 1.875 7.5 7.5 13.125 15 15 56.25 13.125 95.625 61.875 95.625 120 0 67.5-54.375 123.75-123.75 123.75-24.375 0-46.875-7.5-65.625-18.75-3.75-3.75-9.375-5.625-16.875-3.75-9.375 1.875-15 9.375-15 18.75 0 3.75 0 5.625 1.875 9.375 35.625 71.25 108.75 120 189.38 120zm-93.75-88.125c88.125 0 161.25-71.25 161.25-161.25 0-52.5-26.25-101.25-65.625-129.38 93.75 0 168.75 76.875 168.75 170.62s-76.875 170.62-170.62 170.62c-46.875 0-91.875-18.75-123.75-52.5 11.25 1.875 20.625 1.875 30 1.875z"/>
  <path d="m776.25 221.25 13.125 3.75-7.5 11.25c-5.625 7.5-3.75 20.625 3.75 26.25 3.75 1.875 7.5 3.75 11.25 3.75 5.625 0 11.25-1.875 15-7.5l7.5-11.25 7.5 11.25c3.75 5.625 9.375 7.5 15 7.5 3.75 0 7.5-1.875 11.25-3.75 7.5-5.625 9.375-18.75 3.75-26.25l-7.5-11.25 13.125-3.75c9.375-3.75 15-13.125 11.25-24.375 0-9.375-11.25-15-20.625-11.25l-13.125 3.75v-13.125c0-11.25-7.5-18.75-18.75-18.75s-18.75 7.5-18.75 18.75v15l-13.125-3.75c-9.375-3.75-20.625 1.875-24.375 11.25s1.875 20.625 11.25 22.5z"/>
 </g>
</svg>
