<?xml version="1.0" encoding="UTF-8"?>
<svg fill="#058dd687" width="1200pt" height="1200pt" version="1.1" viewBox="0 0 1200 1200" xmlns="http://www.w3.org/2000/svg">
 <g>
  <path d="m1163.3 888.63c-11.906-18.539-22.547-27.492-39.023-38.273-7.9219-5.1797-17.297-7.3125-26.414-6.3516-21.609-51.352-28.688-109.31-19.828-164.2l0.375-2.2734c1.8516-11.32 3.9844-24.141-0.49219-37.148-3.7031-10.781-11.227-18.961-16.688-24.938-20.719-22.594-42.68-45-65.227-66.727v-200.62c0-7.7578-6.3047-14.062-14.062-14.062h-94.031-0.91406c0.58594-1.0312 1.1719-2.0625 1.7109-3 5.5781-9.75 13.219-23.109 13.219-38.086 0-26.109-17.391-56.578-66.445-56.578-49.055 0-66.445 30.469-66.445 56.578 0 14.977 7.6406 28.336 13.219 38.086 0.53906 0.9375 1.125 1.9688 1.7109 3h-0.89062-116.41c-7.7578 0-14.062 6.3047-14.062 14.062v115.97c0 10.641 1.3359 23.625 11.836 29.695 11.227 6.5156 22.945-0.16406 33.258-6.0703 7.7812-4.4531 16.617-9.4922 24.117-9.4922 18.328 0 28.43 13.594 28.43 38.297 0 24.703-10.102 38.32-28.43 38.32-7.5 0-16.336-5.0391-24.117-9.4922-10.336-5.9062-22.031-12.609-33.258-6.0703-10.477 6.0703-11.836 19.055-11.836 29.695v120.68c0 7.7578 6.3047 14.062 14.062 14.062h87.094c-1.0312 2.3438-2.0625 4.6875-3.0234 7.0547-1.0078 2.4375-3.6562 8.9297-0.84375 16.312 2.4375 6.0938 7.3359 9.0234 8.9297 9.9844 6.2812 3.7969 13.617 5.6719 21.211 5.6719 5.25 0 10.617-0.9375 15.867-2.6953-0.14062 2.3906 0.11719 5.0859 1.2188 7.9219 1.5938 4.0781 4.6172 7.4531 8.9531 10.055 6.2812 3.7969 13.594 5.6719 21.188 5.6719 9.5859 0 19.617-2.9766 28.523-8.8594 3.1641-2.0859 6.0703-4.4062 8.7422-6.8438 0.28125 0.49219 0.51562 0.98437 0.84375 1.4531 2.5312 3.7031 6.2812 6.3516 11.039 7.8516 3.8672 1.2422 7.8984 1.8516 12 1.8516 7.3359 0 14.812-1.9688 21.75-5.6484-0.046874 11.32-2.6953 23.25-5.4609 35.648-3.3281 14.906-6.75 30.305-6.1875 46.453 0.82031 23.508 10.43 47.953 27.773 70.664 13.125 17.203 28.992 31.547 44.789 45.258-2.9531 6.4688-4.6641 13.312-5.0156 20.25-0.98438 21.07 8.0156 42.094 26.766 62.484l52.547 68.625c2.7656 3.6094 6.9375 5.5078 11.18 5.5078 2.9766 0 6-0.9375 8.5312-2.9062 6.1641-4.7109 7.3359-13.547 2.625-19.711l-46.195-60.328c31.711-39.516 70.359-82.102 126.73-110.95l23.883 28.945c2.7891 3.375 6.7969 5.1094 10.852 5.1094 3.1406 0 6.3281-1.0547 8.9297-3.2109 6-4.9453 6.8438-13.805 1.8984-19.805l-30.445-36.914zm-482.6-319.69v-0.89062c1.0312 0.58594 2.0625 1.1719 3 1.7109 9.75 5.5781 23.109 13.219 38.086 13.219 26.086 0 56.555-17.391 56.555-66.445 0-49.055-30.469-66.422-56.555-66.422-14.977 0-28.312 7.6406-38.062 13.195-0.9375 0.53906-1.9688 1.125-3.0234 1.7109v-0.91406-101.91h102.35c10.617 0 23.602-1.3359 29.695-11.836 6.5156-11.227-0.16406-22.945-6.0703-33.258-4.4531-7.7812-9.4922-16.617-9.4922-24.117 0-18.352 13.617-28.453 38.32-28.453s38.32 10.102 38.32 28.453c0 7.5-5.0391 16.336-9.5156 24.117-5.9062 10.336-12.609 22.031-6.0938 33.258 6.0938 10.477 19.055 11.836 29.695 11.836h79.969v254.79l-2.25-2.5547c-18.797-21.281-38.227-43.312-60.938-62.039-6.2109-5.1562-13.242-10.008-22.523-10.641-6.6797-0.46875-13.477 1.4531-20.133 5.6484-14.742 9.3047-24.141 27.352-24.562 47.086-0.39844 18.211 6.3516 34.992 11.484 46.055 5.2969 11.414 11.836 22.992 19.711 35.016h-39.375-0.14063-52.594-0.09375-95.789v-106.62zm98.977 145.62c1.6406-3.6797 3.4219-7.2891 5.25-10.875h15.914c-2.4375 2.5547-5.0156 4.8516-7.8047 6.6797-4.2891 2.8125-9.2109 4.2656-13.336 4.2188zm60.586 16.734c-4.2891 2.8359-9.1406 4.3359-13.359 4.2188 4.9688-11.039 10.758-21.68 17.203-31.828h19.969c-0.98438 1.4297-1.9688 2.8359-2.9766 4.2656-6.2344 8.8359-12.656 17.953-20.836 23.344zm55.406-18.047c2.5781 3.7266 4.9453 7.4297 6.9844 11.203-3.3516 3.1641-7.2891 5.3203-11.039 6.1406 1.1484-5.8359 2.5078-11.602 4.0547-17.344zm52.922 175.92c-9.6094-12.586-21.234-32.273-22.008-54.586-0.44531-12.562 2.4609-25.57 5.5312-39.352 4.4766-20.086 9.0938-40.852 3.7969-62.555-0.89062-3.6797-2.1094-7.3828-3.5625-11.016-0.046875-0.11719-0.070313-0.23437-0.11719-0.32812v-0.046876c-5.7422-14.203-14.766-26.18-23.461-37.781l-3.6562-4.8984c-0.96094-1.2891-1.8984-2.5781-2.9297-3.9844-11.883-16.359-20.953-31.383-27.703-45.891-6.2578-13.5-9.0703-24.188-8.8594-33.609 0.21094-10.266 4.7109-19.641 11.438-23.906 2.1562-1.3594 3.2109-1.3828 3.2109-1.3828 0.70312 0.046874 2.3906 0.82031 6.5156 4.2422 21.023 17.344 39.703 38.508 57.773 58.969l29.719 33.703c2.625 3 6.4219 4.7578 10.406 4.8047 4.0781 0.070312 7.8281-1.5938 10.523-4.5469l5.7656-6.2812c3.9375-4.2891 7.8984-8.6016 11.836-12.891 5.2734-5.6953 4.9219-14.602-0.79687-19.875-4.4766-4.125-10.898-4.7578-16.008-2.0859v-37.734c15.281 15.258 30.211 30.75 44.508 46.336 5.1094 5.5781 9.1641 10.219 10.828 15.047 2.1562 6.3047 0.79688 14.625-0.65625 23.438l-0.39844 2.3672c-9.6562 59.953-1.9922 123.23 21.562 179.34-32.977 18.586-58.805 40.969-84.773 73.523-14.25-12.445-27.562-24.703-38.484-39zm55.031 113.58c-6.7734-10.242-9.9609-20.18-9.5156-29.648 0.25781-5.4375 2.3438-10.922 5.9531-15.773l0.46875-0.63281c29.391-39.398 57.164-63.562 95.859-83.367l0.28125-0.14062c3.8438-1.9688 8.5312-1.7109 12.188 0.67969 9.3984 6.1406 15.844 10.992 21.891 17.93-56.227 29.859-95.203 71.578-127.17 110.93z"/>
  <path d="m180.09 1025.4-46.195 60.328c-4.7109 6.1641-3.5625 15 2.625 19.711 2.5547 1.9453 5.5547 2.9062 8.5312 2.9062 4.2188 0 8.4141-1.8984 11.18-5.5078l52.547-68.625c18.773-20.438 27.773-41.461 26.766-62.484-0.32812-6.9375-2.0156-13.781-4.9922-20.25 15.727-13.664 31.594-28.008 44.789-45.258 17.32-22.688 26.93-47.109 27.773-70.664 0.5625-16.148-2.8828-31.57-6.1875-46.477-2.7656-12.422-5.4141-24.352-5.4844-35.648 6.9609 3.7031 14.461 5.6719 21.773 5.6719 4.0312 0 8.0156-0.58594 11.836-1.8281 4.9219-1.5234 8.6719-4.1953 11.156-7.8281 0.35156-0.49219 0.60937-1.0078 0.89062-1.5234 2.6953 2.4609 5.5781 4.7578 8.7656 6.8438 8.9297 5.8828 18.938 8.8594 28.547 8.8594 7.5703 0 14.883-1.875 21.141-5.6484 1.6406-0.98438 6.6094-3.9609 9.0469-10.266 1.0312-2.7656 1.2891-5.3906 1.1484-7.7344 5.25 1.7812 10.641 2.6953 15.891 2.6953 7.5703 0 14.883-1.875 21.141-5.6484 1.6406-0.98437 6.6328-3.9844 8.9766-10.078 2.8359-7.2188 0.16406-13.758-0.86719-16.242-0.96094-2.3438-1.9688-4.7109-3.0234-7.0312h86.977c7.7578 0 14.062-6.3047 14.062-14.062v-120.68-0.89062c1.0312 0.58594 2.0625 1.1719 2.9766 1.6875 9.75 5.5781 23.109 13.219 38.086 13.219 26.086 0 56.555-17.391 56.555-66.445s-30.469-66.422-56.555-66.422c-14.977 0-28.336 7.6406-38.086 13.195-0.9375 0.53906-1.9688 1.125-3 1.7109v-0.91406-115.97c0-7.7578-6.3047-14.062-14.062-14.062h-94.055-0.89062c0.58594-1.0312 1.1719-2.0625 1.7109-3 5.5781-9.75 13.195-23.109 13.195-38.086 0-26.109-17.391-56.578-66.445-56.578-49.055 0-66.422 30.469-66.422 56.578 0 14.977 7.6406 28.312 13.195 38.062 0.53906 0.9375 1.125 1.9688 1.7109 3.0234h-0.91406-116.41c-7.7578 0-14.062 6.3047-14.062 14.062v200.74c-22.312 21.469-44.203 43.828-65.109 66.586-5.4609 5.9531-12.961 14.109-16.664 24.914-4.4766 12.938-2.3906 25.688-0.53906 36.938l0.39844 2.4844c8.8594 54.938 1.8047 112.88-19.805 164.23-9.1172-0.98437-18.492 1.1484-26.438 6.3516-16.477 10.781-27.117 19.758-39 38.273l-30.469 36.914c-4.9453 6-4.1016 14.859 1.8984 19.805 2.625 2.1562 5.7891 3.2109 8.9531 3.2109 4.0547 0 8.0625-1.7344 10.852-5.1094l23.883-28.945c56.344 28.828 94.992 71.438 126.7 110.95zm118.85-300.96c2.0391-3.7734 4.4062-7.5 6.9844-11.227 1.5469 5.7422 2.9062 11.531 4.0547 17.367-3.7266-0.82031-7.6641-2.9766-11.016-6.1406zm62.367 6.8203c-8.1797-5.3672-14.625-14.508-20.859-23.344-1.0078-1.4062-1.9688-2.8359-2.9531-4.2422h19.969c6.4453 10.125 12.211 20.766 17.203 31.852-4.1484 0.046876-9.0469-1.4062-13.359-4.2422zm60.609-16.688c-4.2656 0.023437-9.0703-1.4062-13.383-4.2422-2.7891-1.8281-5.3672-4.125-7.8047-6.6562h15.938c1.8281 3.6094 3.6094 7.2188 5.25 10.898zm-85.992-352.41c10.641 0 23.625-1.3359 29.695-11.836 6.5156-11.227-0.16406-22.945-6.0703-33.281-4.4531-7.7812-9.4922-16.617-9.4922-24.117 0-18.352 13.594-28.453 38.297-28.453s38.32 10.102 38.32 28.453c0 7.5-5.0391 16.336-9.4922 24.117-5.9062 10.336-12.586 22.031-6.0703 33.258 6.0938 10.477 19.055 11.836 29.695 11.836h79.992v101.91c0 10.641 1.3359 23.625 11.836 29.695 11.227 6.5156 22.945-0.16406 33.258-6.0703 7.7812-4.4531 16.617-9.4922 24.117-9.4922 18.328 0 28.43 13.594 28.43 38.297 0 24.703-10.102 38.32-28.43 38.32-7.5234 0-16.336-5.0391-24.141-9.4922-10.312-5.9062-22.031-12.586-33.258-6.0703-10.477 6.0703-11.836 19.055-11.836 29.695v106.62h-187.85c7.8984-12.047 14.414-23.625 19.711-35.039 5.1094-11.062 11.859-27.891 11.461-46.031-0.44531-19.734-9.8438-37.781-24.562-47.086-6.6797-4.1953-13.43-6.1172-20.133-5.6484-9.3281 0.63281-16.359 5.4844-22.523 10.617-22.617 18.656-42.023 40.641-60.938 62.062l-2.3906 2.7188v-254.95h102.35zm-184.64 313.15-0.42187-2.5547c-1.4297-8.7422-2.7656-16.992-0.60938-23.25 1.6641-4.875 5.6953-9.5156 10.805-15.047 14.367-15.656 29.25-31.102 44.391-46.219v37.523c-5.0859-2.5547-11.414-1.9219-15.844 2.1562-5.7188 5.25-6.0938 14.156-0.84375 19.875l0.58594 0.63281c5.6484 6.1641 11.344 12.328 16.992 18.516 2.6953 2.9297 6.5859 4.5703 10.477 4.5703 3.9844-0.023438 7.7578-1.7344 10.406-4.7109l29.953-33.938c18.047-20.438 36.703-41.578 57.656-58.852 4.1016-3.3984 5.7891-4.1719 6.4922-4.2188 0 0 1.0781 0 3.2109 1.3594 6.7266 4.2656 11.227 13.664 11.461 23.93 0.21094 9.4922-2.5312 19.852-8.8594 33.586-6.75 14.555-15.82 29.555-27.797 46.031-0.9375 1.3125-1.8984 2.6016-2.8594 3.9141-0.60938 0.82031-1.2188 1.6406-1.9219 2.5547l-1.6406 2.1797c-8.7422 11.625-17.789 23.648-23.508 37.828 0 0.023438 0 0.046876-0.023437 0.070313-0.070313 0.14062-0.11719 0.30469-0.16406 0.44531-1.4531 3.5859-2.6484 7.2656-3.5625 10.969-5.2969 21.703-0.65625 42.469 3.8203 62.555 3.0703 13.781 5.9766 26.812 5.5312 39.352-0.79688 22.336-12.422 42.023-22.008 54.586-10.922 14.273-24.656 26.906-38.508 39.023-25.945-32.531-51.75-54.938-84.75-73.523 23.531-56.086 31.219-119.37 21.539-179.32zm-58.617 198.56c3.7031-2.4141 8.3672-2.6719 12.234-0.70312 0.09375 0.046875 0.16406 0.09375 0.25781 0.14062h0.046876c38.719 19.805 66.492 43.969 95.836 83.391 0 0 0.39844 0.53906 0.39844 0.53906 3.6797 4.9219 5.7656 10.383 6 15.82 0.46875 9.4688-2.7422 19.406-9.5156 29.648-31.969-39.352-70.945-81.094-127.15-110.95 6.0469-6.9375 12.492-11.766 21.867-17.906z"/>
 </g>
</svg>
