<?xml version="1.0" encoding="UTF-8"?>
<svg fill="#058dd687" width="1200pt" height="1200pt" version="1.1" viewBox="0 0 1200 1200" xmlns="http://www.w3.org/2000/svg">
 <path d="m849.36 743.54h151.54c37.375 0 67.773-30.398 67.773-67.773v-101.52l94.074-85.375c7.2617-6.6016 7.8125-17.836 1.2109-25.102-6.6016-7.2617-17.836-7.8125-25.102-1.2109l-70.184 63.695v-2.0234c0-37.375-30.398-67.773-67.773-67.773l-151.54-0.003906c-37.375 0-67.773 30.398-67.773 67.773v57.914l-121.29-0.61328v-388.79h121.29v58c0 37.375 30.398 67.773 67.773 67.773h151.54c37.375 0 67.773-30.398 67.773-67.773v-101.52l94.074-85.375c7.2617-6.6016 7.8125-17.836 1.2109-25.102-6.6016-7.2617-17.836-7.8125-25.102-1.2109l-70.188 63.699 0.003906-2.0273c0-37.375-30.398-67.773-67.773-67.773h-151.54c-37.375 0-67.773 30.398-67.773 67.773v58h-139.05c-9.8125 0-17.762 7.9492-17.762 17.762v406.39l-113.6-0.57422v-12.336c0-8.7266-6.3359-16.164-14.961-17.551l-53.574-8.5742c-2.8516-8.6875-6.3516-17.148-10.488-25.301l31.824-43.949c5.1133-7.0742 4.3516-16.812-1.8242-22.988l-42.449-42.449c-6.1758-6.1758-15.914-6.9492-22.988-1.8242l-43.949 31.824c-8.1641-4.1367-16.625-7.6484-25.301-10.5l-8.5742-53.562c-1.375-8.6133-8.8125-14.961-17.551-14.961h-60.039c-8.7266 0-16.164 6.3359-17.551 14.961l-8.5742 53.562c-8.6875 2.8516-17.148 6.3516-25.312 10.5l-43.949-31.824c-7.0625-5.125-16.812-4.3359-22.988 1.8242l-42.461 42.449c-6.1758 6.1758-6.9531 15.926-1.8398 22.988l31.824 43.949c-4.1367 8.1641-7.6484 16.625-10.488 25.301l-53.574 8.5742c-8.625 1.375-14.961 8.8125-14.961 17.551v60.039c0 8.7266 6.3359 16.164 14.961 17.551l53.574 8.5742c2.8516 8.6875 6.3516 17.137 10.488 25.301l-31.824 43.961c-5.125 7.0742-4.3516 16.812 1.8242 22.988l42.461 42.449c6.1758 6.1758 15.914 6.9492 22.988 1.8242l43.949-31.824c8.1641 4.1367 16.625 7.6484 25.312 10.5l8.5742 53.562c1.375 8.6133 8.8125 14.961 17.551 14.961h60.039c8.7266 0 16.164-6.3359 17.551-14.961l8.5742-53.574c8.6875-2.8516 17.137-6.3516 25.301-10.488l43.949 31.824c7.0742 5.125 16.812 4.3359 22.988-1.8242l42.449-42.449c6.1758-6.1758 6.9492-15.914 1.8242-22.988l-31.824-43.949c4.1367-8.1641 7.6484-16.625 10.5-25.301l53.562-8.5742c8.625-1.375 14.961-8.8125 14.961-17.551v-12.164l113.6 0.57422v408.14c0 9.8125 7.9492 17.762 17.762 17.762h139.05v58c0 37.375 30.398 67.773 67.773 67.773h151.54c37.375 0 67.773-30.398 67.773-67.773v-101.52l94.074-85.375c7.2617-6.6016 7.8125-17.836 1.2109-25.102-6.6016-7.2617-17.836-7.8125-25.102-1.2109l-70.188 63.699v-2.0234c0-37.375-30.398-67.773-67.773-67.773h-151.52c-37.375 0-67.773 30.398-67.773 67.773v58h-121.29v-390.19l121.29 0.61328v58.086c-0.003906 37.363 30.398 67.766 67.773 67.766zm-32.238-219.3c0-17.773 14.461-32.238 32.238-32.238h151.54c17.773 0 32.238 14.461 32.238 32.238v34.273l-60.438 54.852-61.602-61.613c-6.9375-6.9375-18.188-6.9375-25.125 0s-6.9375 18.188 0 25.125l73.574 73.574c3.4609 3.4609 8.0117 5.1992 12.562 5.1992 4.2617 0 8.5391-1.5234 11.938-4.6133l49.086-44.551v69.273c0 17.773-14.461 32.238-32.238 32.238l-151.54 0.003906c-17.773 0-32.238-14.461-32.238-32.238zm0-425.04c0-17.773 14.461-32.238 32.238-32.238h151.54c17.773 0 32.238 14.461 32.238 32.238v34.273l-60.438 54.852-61.602-61.602c-6.9375-6.9375-18.188-6.9375-25.125 0s-6.9375 18.188 0 25.125l73.574 73.574c3.4609 3.4609 8.0117 5.1992 12.562 5.1992 4.2617 0 8.5391-1.5234 11.938-4.6133l49.086-44.551v69.273c0 17.773-14.461 32.238-32.238 32.238l-151.54 0.007812c-17.773 0-32.238-14.461-32.238-32.238zm-341.5 514.14-49.699 7.9492c-6.9883 1.125-12.648 6.2891-14.398 13.137-3.3867 13.238-8.6484 25.926-15.648 37.727-3.6133 6.0859-3.2617 13.75 0.88672 19.488l29.523 40.789-21.039 21.023-40.789-29.539c-5.7383-4.1484-13.387-4.5-19.488-0.88672-11.789 6.9883-24.488 12.262-37.727 15.637-6.8633 1.75-12.023 7.4141-13.137 14.398l-7.9492 49.699h-29.738l-7.9492-49.699c-1.125-6.9883-6.2891-12.648-13.137-14.398-13.238-3.3867-25.926-8.6484-37.727-15.648-6.1016-3.6133-13.75-3.2617-19.488 0.88672l-40.789 29.523-21.023-21.023 29.523-40.789c4.1484-5.7383 4.5-13.387 0.88672-19.488-6.9883-11.789-12.25-24.488-15.648-37.738-1.75-6.8633-7.4141-12.023-14.398-13.137l-49.699-7.9492v-29.738l49.711-7.9609c6.9883-1.125 12.648-6.2891 14.398-13.137 3.3867-13.238 8.6484-25.926 15.637-37.727 3.6133-6.0859 3.2617-13.75-0.88672-19.488l-29.531-40.746 21.023-21.023 40.789 29.523c5.7383 4.1484 13.387 4.5 19.488 0.88672 11.789-6.9883 24.488-12.262 37.727-15.648 6.8633-1.75 12.023-7.4141 13.137-14.398l7.9492-49.699h29.738l7.9492 49.699c1.125 6.9883 6.2891 12.648 13.137 14.398 13.238 3.3867 25.926 8.6484 37.727 15.648 6.1016 3.6133 13.75 3.2617 19.488-0.88672l40.789-29.523 21.023 21.023-29.523 40.789c-4.1484 5.7383-4.5 13.387-0.88672 19.488 6.9883 11.789 12.262 24.488 15.648 37.727 1.75 6.8633 7.4141 12.023 14.398 13.137l49.699 7.9492v29.746zm341.5 335.93c0-17.773 14.461-32.238 32.238-32.238h151.54c17.773 0 32.238 14.461 32.238 32.238v34.273l-60.438 54.852-61.602-61.613c-6.9375-6.9375-18.188-6.9375-25.125 0s-6.9375 18.188 0 25.125l73.574 73.574c3.4609 3.4609 8.0117 5.1992 12.562 5.1992 4.2617 0 8.5391-1.5234 11.938-4.6133l49.086-44.551v69.273c0 17.773-14.461 32.238-32.238 32.238l-151.54 0.003907c-17.773 0-32.238-14.461-32.238-32.238zm-545.82-457.29c-58.711 0-106.49 47.762-106.49 106.49 0 58.727 47.762 106.49 106.49 106.49 58.727 0 106.49-47.762 106.49-106.49 0-58.727-47.777-106.49-106.49-106.49zm0 177.44c-39.125 0-70.949-31.824-70.949-70.949s31.824-70.949 70.949-70.949 70.949 31.824 70.949 70.949c0 39.121-31.836 70.949-70.949 70.949z"/>
</svg>
