<?xml version="1.0" encoding="UTF-8"?>
<svg fill="#058dd687" width="1200pt" height="1200pt" version="1.1" viewBox="0 0 1200 1200" xmlns="http://www.w3.org/2000/svg">
 <path d="m450 300c6.6289 0 12.988 2.6328 17.676 7.3242 4.6914 4.6875 7.3242 11.047 7.3242 17.676s-2.6328 12.988-7.3242 17.676c-4.6875 4.6914-11.047 7.3242-17.676 7.3242s-12.988-2.6328-17.676-7.3242c-4.6914-4.6875-7.3242-11.047-7.3242-17.676s2.6328-12.988 7.3242-17.676c4.6875-4.6914 11.047-7.3242 17.676-7.3242zm225 25c0-6.6289-2.6328-12.988-7.3242-17.676-4.6875-4.6914-11.047-7.3242-17.676-7.3242s-12.988 2.6328-17.676 7.3242c-4.6914 4.6875-7.3242 11.047-7.3242 17.676s2.6328 12.988 7.3242 17.676c4.6875 4.6914 11.047 7.3242 17.676 7.3242s12.988-2.6328 17.676-7.3242c4.6914-4.6875 7.3242-11.047 7.3242-17.676zm317.68 642.68c-7.3906 9.1523-11.422 20.559-11.422 32.324s4.0312 23.172 11.422 32.324l7.3242 7.3242v60.352h-700c-35.727 0-68.738-19.059-86.602-50-17.863-30.941-17.863-69.059 0-100 17.863-30.941 50.875-50 86.602-50h289.38c-264.38-137.3-264.38-416.07-264.38-575-1.4102-48.395 11.809-96.086 37.926-136.85-24.59-22.66-38.379-54.711-37.926-88.148h50c-0.29688 19.156 7.3906 37.57 21.227 50.824 43.449-34.934 98.062-52.984 153.77-50.824 55.711-2.1602 110.32 15.891 153.77 50.824 13.836-13.254 21.523-31.668 21.227-50.824h50c0.45312 33.438-13.336 65.488-37.926 88.148 26.117 40.766 39.336 88.457 37.926 136.85v88.273c23.883 13.672 43.523 33.672 56.758 57.801 13.234 24.125 19.547 51.438 18.242 78.926v325h-55.898l-5.2734-2.5c-147.45-73.852-238.83-153.5-238.83-322.5-2.2344-40.996 12.637-81.078 41.07-110.7 28.434-29.617 67.879-46.113 108.93-45.555 8.3789 0.035156 16.738 0.74609 25 2.125v-70.875c1.2695-36.973-8.043-73.539-26.852-105.4-5.5742 3.8516-11.227 7.5-16.824 11.324-54.699 36.398-106.32 70.773-106.32 169.07h-50c0-98.301-51.625-132.68-106.32-169.07-5.6016-3.7266-11.25-7.5-16.824-11.324-18.809 31.859-28.121 68.426-26.852 105.4 0 179.3 0 479.02 353.3 575h271.7v60.352zm-192.68-417.68c1.3906-29.918-9.9102-59.031-31.125-80.176-18.82-17.113-43.441-26.434-68.875-26.074-27.863-0.77344-54.73 10.398-73.832 30.695-19.105 20.297-28.625 47.789-26.168 75.555 0 125.55 50.75 195.3 200 271.98zm-363.55-367.5c3.25 2.1992 6.4258 4.375 10 6.6992 42.559 24.043 78.219 58.625 103.55 100.43 25.367-41.773 61.051-76.32 103.62-100.32 3.5-2.3242 6.6758-4.5 10-6.6992-33.363-22.852-73.223-34.285-113.62-32.602-40.363-1.6992-80.195 9.7031-113.55 32.5zm507.5 767.5h-643.95c-17.863 0-34.371 9.5312-43.301 25-8.9336 15.469-8.9336 34.531 0 50 8.9297 15.469 25.438 25 43.301 25h643.95c-16.949-31.18-16.949-68.82 0-100z"/>
</svg>
