<?xml version="1.0" encoding="UTF-8"?>
<svg fill="#058dd687" width="1200pt" height="1200pt" version="1.1" viewBox="0 0 1200 1200" xmlns="http://www.w3.org/2000/svg">
 <path d="m843.98 50.859h200.86c7.9688 0 14.297 6.3281 14.297 14.297v461.95h46.406c7.9688 0 14.297 6.5625 14.297 14.297v593.67c0 7.9688-6.3281 14.297-14.297 14.297h-1011.1c-8.4375 0-14.766-6.7969-14.062-15.938l2.5781-63.984c0.23438-4.9219 3.0469-9.375 7.0312-11.719l77.344-50.859v-1.4062-367.97c0-41.25 33.047-75 73.828-76.406-39.141-33.281-41.484-93.047-5.1562-129.38 55.312-55.312 150.47-15.938 150.47 62.344 0 9.6094-1.4062 18.516-4.2188 27.188l47.812-26.484 75.469-121.41c12.656-24.844 39.375-41.25 67.734-41.25h16.641c-39.141-33.281-41.484-93.047-5.1562-129.38 55.312-55.312 150.47-15.938 150.47 62.344 0 26.719-11.719 50.859-30.938 67.031h206.72c7.9688 0 14.297 6.3281 14.297 14.297v67.734c0 7.9688-6.3281 14.297-14.297 14.297h-164.77v86.953h55.547c7.9688 0 14.297 6.3281 14.297 14.297v50.391l75.469-49.922c2.3438-1.6406 5.1562-2.3438 7.9688-2.3438h131.48v-315.7h-186.56c-12.422 0-19.688-15.469-9.375-25.078l57.891-58.594-58.359-52.734c-9.8438-8.6719-3.5156-24.844 9.375-24.844zm186.56 28.359h-149.3l41.953 37.969c6.0938 5.8594 6.3281 15 0.70312 20.625l-45.469 45.938h152.34v-104.53zm-690.23 372.19c-37.5-37.5-101.72-10.781-101.72 41.953 0 52.969 64.219 79.688 101.72 42.188 23.203-23.203 23.203-60.938 0-84.141zm158.44 114.14-133.36 74.297v103.83h55.547c7.9688 0 14.297 6.3281 14.297 14.297v71.953l112.5-74.062v-264.38l-42.891 68.906c-1.6406 2.3438-3.75 4.2188-6.0938 5.1562zm-63.516 298.36v58.828c0 7.9688-6.3281 14.297-14.297 14.297h-84.844c-3.0469 0-5.8594-0.9375-7.9688-2.5781l-47.578 31.406v39.141c0 7.7344-6.3281 14.297-14.297 14.297h-66.797l-88.594 58.359-1.6406 42.891h982.03v-565.08h-188.2l-87.422 57.656v80.156c0 7.9688-6.3281 14.297-14.297 14.297h-84.844c-8.2031 0-14.766-6.5625-14.297-15.469v-4.4531l-41.25 27.422v60.703c0 7.9688-6.3281 14.297-14.297 14.297h-84.844c-3.5156 0-6.7969-1.1719-9.1406-3.5156zm-113.44 40.547v-50.859h-41.25v78.281zm-8.2031-315.47h-70.078c-26.484 0-48.047 21.562-48.047 47.812v353.67h56.484v-151.41c0-7.9688 6.3281-14.297 14.297-14.297h69.844c7.7344 0 14.062 6.3281 14.062 14.297v69.141h56.484v-136.17h-55.547c-7.9688 0-14.297-6.3281-14.297-14.297v-126.56c0-5.1562 2.5781-9.8438 7.2656-12.422l124.22-69.141-30.469-27.891-116.25 64.688c-2.3438 1.875-4.9219 2.5781-7.9688 2.5781zm375.23-367.03c-37.5-37.5-101.72-10.781-101.72 42.188s64.219 79.453 101.72 42.188c23.203-23.203 23.203-60.938 0-84.375zm13.594 431.72v-29.531h-41.484v56.719zm-8.2031-293.91h-121.41c-17.578 0-34.922 10.312-42.422 25.547l-1.6406 3.0469-70.547 113.67 31.406 28.594 59.766-95.859c7.7344-13.359 26.719-7.2656 26.719 6.7969v319.69h56.484v-151.41c0-7.7344 6.3281-14.297 14.297-14.297h69.844c7.7344 0 14.062 6.3281 14.062 14.062v69.141h56.484v-136.17h-55.547c-7.9688 0-14.297-6.3281-14.297-14.297v-115.55c0-7.9688 6.3281-14.297 14.297-14.297h164.77v-39.141h-202.27z"/>
</svg>
