<?xml version="1.0" encoding="UTF-8"?>
<svg fill="#058dd687" width="1200pt" height="1200pt" version="1.1" viewBox="0 0 1200 1200" xmlns="http://www.w3.org/2000/svg">
 <path d="m818.47 755.75c0-4.3945-1.75-8.6211-4.8594-11.73l-14.438-14.438c-3.1094-3.1094-7.3359-4.8594-11.73-4.8594h-17.105c-3.9414-14.668-9.7461-28.676-17.34-41.852l12.098-12.098c3.1094-3.1094 4.8594-7.3359 4.8594-11.73v-20.414c0-4.3945-1.75-8.6211-4.8594-11.73l-21.234-21.219c-3.1094-3.1094-7.3359-4.8594-11.73-4.8594h-20.414c-4.3945 0-8.6211 1.75-11.73 4.8594l-12.109 12.109c-13.176-7.6055-27.184-13.406-41.852-17.352v-17.105c0-4.3945-1.75-8.6211-4.8594-11.73l-14.426-14.438c-3.1094-3.1094-7.3359-4.8594-11.73-4.8594h-30.023c-4.3945 0-8.6211 1.75-11.73 4.8594l-14.438 14.438c-3.1094 3.1094-4.8594 7.3359-4.8594 11.73v17.105c-14.668 3.9414-28.676 9.7461-41.852 17.34l-12.098-12.109c-3.1094-3.1094-7.3359-4.8594-11.742-4.8594h-20.398c-4.3945 0-8.6211 1.75-11.73 4.8594l-21.234 21.219c-3.1094 3.1094-4.8594 7.3359-4.8594 11.73v20.414c0 4.3945 1.75 8.6211 4.8594 11.73l12.098 12.098c-7.6055 13.188-13.406 27.184-17.352 41.852h-17.105c-4.3945 0-8.6211 1.75-11.73 4.8594l-14.426 14.438c-3.1094 3.1094-4.8594 7.3359-4.8594 11.73v30.012c0 4.3945 1.75 8.6211 4.8594 11.73l14.426 14.438c3.1094 3.1094 7.3359 4.8594 11.73 4.8594h17.105c3.9414 14.668 9.7461 28.664 17.352 41.852l-12.109 12.109c-3.1094 3.1094-4.8594 7.3359-4.8594 11.73v20.414c0 4.3945 1.75 8.6211 4.8594 11.73l21.234 21.234c3.1094 3.1094 7.3359 4.8594 11.73 4.8594h20.414c4.3945 0 8.6211-1.75 11.73-4.8594l12.109-12.109c13.188 7.6055 27.184 13.406 41.852 17.352v17.105c0 4.3945 1.75 8.6211 4.8594 11.73l14.438 14.438c3.1094 3.1094 7.3359 4.8594 11.73 4.8594h30.023c4.3945 0 8.6211-1.75 11.73-4.8594l14.426-14.438c3.1094-3.1094 4.8594-7.3359 4.8594-11.73v-17.105c14.68-3.9414 28.676-9.7461 41.852-17.352l12.109 12.109c3.1094 3.1094 7.3359 4.8594 11.73 4.8594h20.398c4.3945 0 8.6211-1.75 11.73-4.8594l21.234-21.234c3.1094-3.1094 4.8594-7.3359 4.8594-11.73v-20.398c0-4.3945-1.75-8.6211-4.8594-11.73l-12.109-12.098c7.6055-13.188 13.406-27.184 17.352-41.852h17.105c4.3945 0 8.6211-1.75 11.73-4.8594l14.438-14.438c3.1094-3.1094 4.8594-7.3359 4.8594-11.73v-30.027zm-33.195 23.145-4.7148 4.7148h-23.461c-7.9961 0-14.852 5.6953-16.309 13.555-3.6484 19.629-11.254 37.961-22.578 54.477-4.5195 6.5859-3.6992 15.465 1.9453 21.121l16.605 16.605v6.6602l-11.512 11.512h-6.6484l-16.605-16.605c-5.6445-5.6445-14.523-6.4648-21.121-1.9453-16.508 11.312-34.836 18.918-54.477 22.578-7.8594 1.4688-13.555 8.3281-13.555 16.309v23.473l-4.7148 4.7148h-16.273l-4.7148-4.7148v-23.473c0-7.9961-5.6953-14.852-13.555-16.309-19.629-3.6602-37.961-11.254-54.477-22.578-6.5742-4.5078-15.453-3.6992-21.109 1.9453l-16.605 16.605h-6.6641l-11.512-11.512v-6.6602l16.605-16.605c5.6445-5.6445 6.4648-14.523 1.9453-21.109-11.328-16.52-18.918-34.848-22.566-54.477-1.4688-7.8594-8.3281-13.555-16.309-13.555h-23.473l-4.7148-4.7148v-16.273l4.7148-4.7148h23.473c7.9961 0 14.852-5.6953 16.309-13.555 3.6484-19.629 11.254-37.961 22.578-54.477 4.5195-6.5859 3.6992-15.465-1.9609-21.121l-16.602-16.605v-6.6602l11.512-11.496h6.6602l16.605 16.605c5.6562 5.6562 14.535 6.4766 21.121 1.9453 16.508-11.328 34.836-18.918 54.477-22.578 7.8594-1.4688 13.555-8.3281 13.555-16.309v-23.473l4.7148-4.7148h16.273l4.7148 4.7148v23.473c0 7.9961 5.6953 14.852 13.555 16.309 19.629 3.6602 37.961 11.254 54.477 22.578 6.5859 4.5312 15.465 3.7109 21.121-1.9453l16.605-16.605h6.6602l11.512 11.496v6.6602l-16.605 16.605c-5.6562 5.6445-6.4766 14.535-1.9609 21.121 11.328 16.52 18.918 34.836 22.578 54.477 1.4688 7.8477 8.3281 13.555 16.309 13.555h23.473l4.7148 4.7148 0.007812 16.262zm-185.28-116.06c-59.512 0-107.91 48.418-107.91 107.91 0 59.5 48.402 107.93 107.91 107.93s107.91-48.418 107.91-107.91-48.402-107.93-107.91-107.93zm0 182.66c-41.203 0-74.73-33.527-74.73-74.73s33.527-74.73 74.73-74.73 74.73 33.527 74.73 74.73c0 41.207-33.527 74.73-74.73 74.73zm-132.05-353.75h264.09c9.1719 0 16.594-7.4336 16.594-16.594v-106.37c0-53.059-43.176-96.234-96.234-96.234l-104.8 0.003906c-53.059 0-96.234 43.176-96.234 96.234v106.37c0 9.1719 7.4336 16.59 16.59 16.59zm16.605-122.95c0-34.762 28.285-63.051 63.051-63.051h104.8c34.762 0 63.051 28.285 63.051 63.051v89.781h-32.57v-49.508c0-9.1719-7.4336-16.594-16.594-16.594s-16.594 7.4336-16.594 16.594v49.508h-99.402v-49.508c0-9.1719-7.4336-16.594-16.594-16.594-9.1719 0-16.594 7.4336-16.594 16.594v49.508h-32.57v-89.781zm114.75-111.37c39.32 0 71.301-39.258 71.301-87.527 0-45.98-27.305-75.699-69.574-75.699-42.992 0-73.027 31.125-73.027 75.699 0 48.27 31.984 87.527 71.301 87.527zm1.7266-130.03c23.473 0 36.391 15.098 36.391 42.504 0 29.461-17.461 54.344-38.117 54.344s-38.117-24.883-38.117-54.344c0-31.336 20.582-42.504 39.844-42.504zm417.15 759.2h-104.8c-53.07 0-96.234 43.176-96.234 96.234v106.37c0 9.1719 7.4336 16.594 16.594 16.594h264.09c9.1719 0 16.594-7.4336 16.594-16.594v-106.37c-0.003906-53.062-43.176-96.234-96.234-96.234zm63.047 186.01h-32.57v-49.492c0-9.1719-7.4336-16.594-16.594-16.594s-16.594 7.4336-16.594 16.594v49.492h-99.402v-49.492c0-9.1719-7.4336-16.594-16.594-16.594s-16.594 7.4336-16.594 16.594v49.492h-32.57v-89.781c0-34.762 28.285-63.051 63.051-63.051h104.8c34.762 0 63.051 28.285 63.051 63.051v89.781zm-116.15-201.14c39.32 0 71.301-39.258 71.301-87.527 0-45.98-27.305-75.699-69.586-75.699-42.992 0-73.027 31.125-73.027 75.699 0.007813 48.27 31.992 87.527 71.312 87.527zm1.7266-130.03c23.473 0 36.391 15.098 36.391 42.504 0 29.449-17.461 54.344-38.117 54.344s-38.117-24.883-38.117-54.344c-0.003906-31.336 20.582-42.504 39.844-42.504zm-680.16 145.15h-104.8c-53.07 0-96.234 43.176-96.234 96.234v106.37c0 9.1719 7.4336 16.594 16.594 16.594h264.09c9.1719 0 16.594-7.4336 16.594-16.594v-106.37c0-53.062-43.176-96.234-96.234-96.234zm63.051 186.01h-32.57v-49.492c0-9.1719-7.4336-16.594-16.594-16.594-9.1719 0-16.594 7.4336-16.594 16.594v49.492h-99.402v-49.492c0-9.1719-7.4336-16.594-16.594-16.594-9.1719 0-16.594 7.4336-16.594 16.594v49.492h-32.566v-89.781c0-34.762 28.285-63.051 63.051-63.051h104.8c34.762 0 63.051 28.285 63.051 63.051l-0.007813 89.781zm-116.16-201.14c39.32 0 71.301-39.258 71.301-87.527 0-45.98-27.305-75.699-69.586-75.699-42.992 0-73.027 31.125-73.027 75.699 0.011719 48.27 31.992 87.527 71.312 87.527zm1.7266-130.03c23.473 0 36.391 15.098 36.391 42.504 0 29.449-17.461 54.344-38.117 54.344s-38.117-24.883-38.117-54.344c0-31.336 20.582-42.504 39.844-42.504z"/>
</svg>
