<?xml version="1.0" encoding="UTF-8"?>
<svg fill="#058dd687" width="1200pt" height="1200pt" version="1.1" viewBox="0 0 1200 1200" xmlns="http://www.w3.org/2000/svg">
 <path d="m471.3 306.93c-4.1523-4.8008-6.1719-10.934-5.6953-17.266 0.46484-6.332 3.3789-12.086 8.1797-16.223 4.8008-4.1406 10.973-6.1328 17.242-5.6953 6.332 0.46484 12.098 3.3672 16.25 8.168l32.215 37.359c4.1523 4.8008 6.1719 10.934 5.6953 17.266-0.46484 6.3203-3.3672 12.086-8.168 16.223-4.2969 3.7227-9.8086 5.7656-15.504 5.7656-6.9297 0-13.492-3-18-8.2422zm176.27 39.832c4.3359 3.7227 9.832 5.7656 15.504 5.7656 6.9297 0 13.492-3 18-8.2422l32.215-37.359c4.1523-4.8008 6.1719-10.934 5.707-17.266-0.46484-6.3203-3.3789-12.086-8.1797-16.238-9.9414-8.5586-24.969-7.4336-33.504 2.4727l-32.215 37.359c-4.1523 4.8008-6.1719 10.934-5.707 17.254 0.48047 6.3359 3.3789 12.094 8.1797 16.254zm-55.262-17.789c13.102 0 23.754-10.652 23.754-23.754v-49.324c0-13.102-10.652-23.754-23.754-23.754-13.102 0-23.754 10.652-23.754 23.754v49.324c0 13.102 10.652 23.754 23.754 23.754zm301.58 238.37c21.797 0 42.086-11.426 57.109-32.168 14.266-19.703 22.125-45.688 22.125-73.152 0-52.434-32.191-86.312-82.016-86.312-24.699 0-44.766 8.6953-58.039 25.152-12.074 14.949-18.453 36.098-18.441 61.164 0.011719 27.477 7.875 53.449 22.152 73.152 15.023 20.738 35.301 32.164 57.109 32.164zm74.41 84.5-179.27-0.035156c-68.949-6.7109-108.16-90.16-125.4-139.31l-11.473-32.707-8.9492 33.477c-8.2891 31.016-18.832 60.504-31.309 87.66l-2.168 4.7148 2.3633 4.6172c25.777 50.523 82.789 136.58 175.02 145.34 4.4453 0.41797 7.8008 4.1016 7.8008 8.582v203.7l195.73-0.011719v-97.531c0-4.75 3.8711-8.6094 8.6211-8.6094s8.6094 3.8711 8.6094 8.6094v97.531h108.22l0.011719-168.23c-0.015625-81.477-66.32-147.79-147.81-147.79zm-336.92-252.6c-8.3281-9.4297-18.941-14.215-31.543-14.242h-3.5156-0.0625c-21.613 0-39.172 15.586-41.73 37.102-10.066 84.402-57.957 221.4-144.43 229.74h-178.4c-81.488 0-147.8 66.305-147.8 147.8v168.23l108.2-0.011719v-97.531c0-4.75 3.8711-8.6094 8.6211-8.6094s8.6094 3.8711 8.6094 8.6094v97.531l195.73-0.011719v-203.68c0-4.4688 3.3555-8.1562 7.8008-8.582 74.277-7.0547 125.47-64.164 155.35-110.83 37.422-58.445 63.477-133.89 73.359-212.44 1.5781-12.492-1.8516-23.621-10.191-33.074zm-325.29 168.1c21.797 0 42.086-11.426 57.109-32.168 14.277-19.703 22.141-45.672 22.141-73.152 0-54.051-28.594-86.312-76.48-86.312-25.004 0-45.918 8.4141-60.516 24.332-14.082 15.355-21.516 36.785-21.504 61.984 0 27.465 7.8594 53.438 22.141 73.152 15.023 20.738 35.312 32.164 57.109 32.164z"/>
</svg>
